<svg xmlns="http://www.w3.org/2000/svg" xmlns:xlink="http://www.w3.org/1999/xlink" viewBox="0 0 240.6 240.6"><defs><style>.cls-1{opacity:0;fill:url(#Unbenannter_Verlauf_16);}.cls-2,.cls-3,.cls-4,.cls-5{fill:#00b7c5;}.cls-3{opacity:0.1;}.cls-4{opacity:0.5;}.cls-5{opacity:0.25;}.cls-6{fill:#fff;}.cls-7{fill:#0f3535;}</style><radialGradient id="Unbenannter_Verlauf_16" cx="-1823.1" cy="-1320.45" r="62.46" gradientTransform="matrix(-1.31, -1.41, 1.41, -1.31, -416.01, -4181.64)" gradientUnits="userSpaceOnUse"><stop offset="0.8" stop-color="#fff" stop-opacity="0.8"/><stop offset="1" stop-color="#fff" stop-opacity="0.5"/></radialGradient></defs><title>Element 35</title><g id="Ebene_2" data-name="Ebene 2"><g id="Ebene_1-2" data-name="Ebene 1"><circle class="cls-1" cx="120.3" cy="120.3" r="120.3" transform="translate(-49.83 120.3) rotate(-45)"/><path class="cls-2" d="M212.64,122.38a12.48,12.48,0,0,0,9.89,5.52,12.25,12.25,0,0,0,7.38-2.17A12.52,12.52,0,1,0,216,104.93a12.66,12.66,0,0,0-3.32,17.45"/><path class="cls-2" d="M74.5,199a8.58,8.58,0,0,0-1.34,0,12.51,12.51,0,0,0-11.1,9.17,12.75,12.75,0,0,0-.43,4.25,12.45,12.45,0,0,0,12,11.65c.44,0,.89,0,1.32,0A12.52,12.52,0,0,0,86,214.9a13.32,13.32,0,0,0,.42-4.26A12.45,12.45,0,0,0,74.5,199"/><path class="cls-3" d="M169.33,135.27a7.59,7.59,0,0,0-1.58.1,7.08,7.08,0,0,0-1,.2,9.19,9.19,0,0,0,2,18.05,8.29,8.29,0,0,0,1.58-.1,9.2,9.2,0,0,0,7.7-10.39,9.08,9.08,0,0,0-8.66-7.86"/><path class="cls-4" d="M185.69,129.81a10.69,10.69,0,0,0,9.4,15,10.11,10.11,0,0,0,4.1-.71,10.49,10.49,0,0,0,5.9-5.61,10.68,10.68,0,0,0,.2-8.23,10.56,10.56,0,0,0-9.53-6.85,10.14,10.14,0,0,0-3,.34,8.11,8.11,0,0,0-1.18.38,10.58,10.58,0,0,0-5.89,5.64"/><path class="cls-3" d="M72.72,158.33a8.76,8.76,0,0,0,3,.65,9.11,9.11,0,0,0,8.74-5.72c.11-.32.23-.65.33-1a9.09,9.09,0,1,0-12.12,6"/><path class="cls-5" d="M70.06,188.61a10.53,10.53,0,0,0,11.88-7.7,8.25,8.25,0,0,0,.25-1.2,10.71,10.71,0,0,0-1.89-8,10.43,10.43,0,0,0-6.92-4.27,9.65,9.65,0,0,0-1.23-.13,10.74,10.74,0,0,0-10.88,9,10.58,10.58,0,0,0,1.87,8,10.4,10.4,0,0,0,6.92,4.27"/><path class="cls-3" d="M125.15,60.14a8.93,8.93,0,0,0-6.8-3.5,9.17,9.17,0,0,0-7.5,14.81,8.15,8.15,0,0,0,.68.77,9,9,0,0,0,12.09.8,9.27,9.27,0,0,0,1.53-12.88"/><path class="cls-5" d="M87.78,41.17a10.82,10.82,0,0,0,.68,14.24c.29.29.59.58.9.84a10.38,10.38,0,0,0,6.29,2.38,10.79,10.79,0,0,0,1.51-.05,10.45,10.45,0,0,0,7.12-3.92A10.89,10.89,0,0,0,102.7,39.6a10.38,10.38,0,0,0-6.29-2.38,12.5,12.5,0,0,0-1.49.05,10.2,10.2,0,0,0-7.14,3.9"/><path class="cls-2" d="M57.27,42a13.2,13.2,0,0,0,3.43,2.5,12.13,12.13,0,0,0,5,1.25,12.5,12.5,0,0,0,11.65-7.05A12.72,12.72,0,0,0,75,24.42a13.42,13.42,0,0,0-3.44-2.5,12.09,12.09,0,0,0-5-1.25A12.43,12.43,0,0,0,55,27.74,12.61,12.61,0,0,0,57.27,42"/><circle class="cls-6" cx="120.3" cy="120.3" r="101.9"/><path class="cls-2" d="M120.46,224.31q-3.83,0-7.68-.28A104.1,104.1,0,0,1,52.2,41.46,104.11,104.11,0,0,1,188.41,198.94,103.39,103.39,0,0,1,120.46,224.31Zm-.31-204.14a100,100,0,0,0-75.5,165.46A100,100,0,1,0,127.52,20.44h0Q123.83,20.17,120.15,20.17Z"/><path class="cls-7" d="M68.51,99a6.43,6.43,0,0,1-5-2.2,8.09,8.09,0,0,1-2-5.6v-.81a8.3,8.3,0,0,1,2-5.66,6.07,6.07,0,0,1,4.75-2.25,5.87,5.87,0,0,1,4.6,1.85,7.08,7.08,0,0,1,1.68,4.94v1.49H63.32v.43a7,7,0,0,0,1.43,4.49,4.56,4.56,0,0,0,3.76,1.82,7.66,7.66,0,0,0,2.8-.46,5.44,5.44,0,0,0,2-1.31L74,97a6.45,6.45,0,0,1-2.26,1.49A8.88,8.88,0,0,1,68.51,99Zm-.24-15A4.23,4.23,0,0,0,65,85.5a6.41,6.41,0,0,0-1.55,3.74l0,.08h9.34v-.44a5.1,5.1,0,0,0-1.22-3.47A4.21,4.21,0,0,0,68.27,84Z"/><path class="cls-7" d="M79.66,97.42l2.39-.19V84.3l-2.39-.19V82.8h4.15V97.23l2.38.19v1.3H79.66Zm4.15-19.17H82.06V75.78h1.75Z"/><path class="cls-7" d="M90.92,97.42l2.38-.19V84.3l-2.38-.19V82.8h4L95,85.58a5.49,5.49,0,0,1,5.15-3.07,4.9,4.9,0,0,1,3.94,1.58A7.51,7.51,0,0,1,105.47,89v8.2l2.39.19v1.3H101.3v-1.3l2.38-.19V89a5.83,5.83,0,0,0-1-3.88A3.66,3.66,0,0,0,99.76,84a4.53,4.53,0,0,0-3,1,5.34,5.34,0,0,0-1.68,2.59v9.62l2.38.19v1.3H90.88Z"/><path class="cls-7" d="M112.46,84.26V82.82h2.63V80.49a5.29,5.29,0,0,1,1.19-3.7,4.28,4.28,0,0,1,3.37-1.31,6.33,6.33,0,0,1,1,.07,9.23,9.23,0,0,1,1,.21l-.23,1.45c-.23-.06-.47-.1-.72-.14a8.11,8.11,0,0,0-.86,0,2.76,2.76,0,0,0-2.22.92,3.84,3.84,0,0,0-.77,2.55v2.33h3.79v1.44h-3.75v13l2.38.19v1.3H112.7v-1.3l2.39-.19v-13Z"/><path class="cls-7" d="M136.44,98.72c-.12-.54-.2-1-.25-1.4a7.92,7.92,0,0,1-.07-1.19,7,7,0,0,1-2.36,2.07,6.7,6.7,0,0,1-3.31.83,5.08,5.08,0,0,1-3.61-1.21,4.24,4.24,0,0,1-1.28-3.27,4,4,0,0,1,1.89-3.49,9,9,0,0,1,5.15-1.3h3.52v-2.1A3.42,3.42,0,0,0,135,85,4.45,4.45,0,0,0,132,84a7.68,7.68,0,0,0-2.42.36,5.69,5.69,0,0,0-1.83,1l-.14,2.13H126.1v-3A9,9,0,0,1,128.76,83,9.85,9.85,0,0,1,132,82.5a6.4,6.4,0,0,1,4.23,1.34,4.71,4.71,0,0,1,1.6,3.84V95.5c0,.32,0,.64,0,.93a6.4,6.4,0,0,0,.09.88l1.59.1v1.3Zm-5.8-1.25a6.34,6.34,0,0,0,3.37-.9,5.18,5.18,0,0,0,2.09-2.28V91.12h-3.53a6.63,6.63,0,0,0-3.83,1,3,3,0,0,0-1.43,2.51,2.62,2.62,0,0,0,.89,2.06A3.53,3.53,0,0,0,130.64,97.47Z"/><path class="cls-7" d="M150.94,97.54a5,5,0,0,0,3.09-1,3.3,3.3,0,0,0,1.34-2.78h1.56l0,.09a4.37,4.37,0,0,1-1.76,3.69A6.55,6.55,0,0,1,150.94,99a6,6,0,0,1-5-2.23,8.91,8.91,0,0,1-1.79-5.72v-.62a8.88,8.88,0,0,1,1.79-5.71,6,6,0,0,1,5-2.23,8,8,0,0,1,3.37.69,6.63,6.63,0,0,1,2.48,1.88l.07,3.47h-1.49l-.28-2.82a4.87,4.87,0,0,0-1.75-1.26,5.78,5.78,0,0,0-2.39-.46,4.26,4.26,0,0,0-3.79,1.83,8.07,8.07,0,0,0-1.22,4.61v.62a8.19,8.19,0,0,0,1.21,4.64A4.24,4.24,0,0,0,150.94,97.54Z"/><path class="cls-7" d="M161.8,77.1V75.79H166v9.75a5.69,5.69,0,0,1,5.2-3A4.87,4.87,0,0,1,175,84.07a7.16,7.16,0,0,1,1.35,4.84v8.32l2.38.19v1.3h-6.56v-1.3l2.39-.19V88.88a5.4,5.4,0,0,0-1-3.71A3.64,3.64,0,0,0,170.74,84a4.81,4.81,0,0,0-3,.95,5.45,5.45,0,0,0-1.79,2.52v9.72l2.39.19v1.3H161.8v-1.3l2.39-.19v-20Z"/><path class="cls-2" d="M177.71,116.73H62.9a2.38,2.38,0,0,1-1.84-2.13h0a2.38,2.38,0,0,1,1.84-2.13H177.71a2.38,2.38,0,0,1,1.83,2.13h0A2.38,2.38,0,0,1,177.71,116.73Z"/><path class="cls-7" d="M61.16,130.62h2.07v33.5H61.16Z"/><path class="cls-7" d="M109.3,147.37a21.43,21.43,0,0,1-1.08,6.88,16.5,16.5,0,0,1-3.11,5.58,14.54,14.54,0,0,1-5,3.73,17.34,17.34,0,0,1-13.45,0,14.53,14.53,0,0,1-5-3.73,16.5,16.5,0,0,1-3.11-5.58,22.42,22.42,0,0,1,0-13.75,16.4,16.4,0,0,1,3.11-5.58,14.44,14.44,0,0,1,5-3.73,17.25,17.25,0,0,1,13.45,0,14.42,14.42,0,0,1,5,3.73,16.26,16.26,0,0,1,3.12,5.58A21.4,21.4,0,0,1,109.3,147.37Zm-29.79,0a19.15,19.15,0,0,0,.94,6.1,15,15,0,0,0,2.72,5,12.94,12.94,0,0,0,10.22,4.67,13.16,13.16,0,0,0,5.85-1.27,13.4,13.4,0,0,0,4.33-3.4,15.06,15.06,0,0,0,2.73-5,20.31,20.31,0,0,0,0-12.2,14.92,14.92,0,0,0-2.73-5,13.29,13.29,0,0,0-4.33-3.41,13,13,0,0,0-5.85-1.26,12.88,12.88,0,0,0-10.22,4.67,14.9,14.9,0,0,0-2.72,5A19.25,19.25,0,0,0,79.51,147.37Z"/><path class="cls-7" d="M117.93,132.42v-1.78H143.6v1.78H131.77v31.7H129.7v-31.7Z"/><path class="cls-7" d="M150.73,164.12h-2.21L162,130.62h2.25l13.23,33.5h-2.2l-12.06-31.48h-.1Z"/></g></g></svg>